<?xml version="1.0" encoding="utf-8"?>
<!-- Generator: Adobe Illustrator 26.5.0, SVG Export Plug-In . SVG Version: 6.00 Build 0)  -->
<svg version="1.1" id="Layer_1" xmlns="http://www.w3.org/2000/svg" xmlns:xlink="http://www.w3.org/1999/xlink" x="0px" y="0px"
	 viewBox="0 0 169 180" style="enable-background:new 0 0 169 180;" xml:space="preserve">
<style type="text/css">
	.st0{fill:none;stroke:#463F3A;stroke-width:2;stroke-miterlimit:10;}
</style>
<g id="Logo">
	<path class="st0" d="M82.7,23.9c0,0-28,0.6-42,18.6v43.3c0,0,2,36.5,42,66.6c40-30.1,42-66.6,42-66.6V42.5
		C110.7,24.5,82.7,23.9,82.7,23.9z"/>
	<path class="st0" d="M82.9,28.4c0,0-25.2,0.5-37.8,16.7v42c0,0,1.8,32.8,37.8,59.9c36-27.1,37.8-59.9,37.8-59.9v-42
		C108.1,29,82.9,28.4,82.9,28.4z"/>
	<line class="st0" x1="82.9" y1="28.4" x2="82.9" y2="147"/>
	<line class="st0" x1="45.2" y1="45.1" x2="120.7" y2="45.1"/>
	<path class="st0" d="M82.9,45.1c0,0,0.7,18.5-37.8,18.5v-7.5C45.2,56.1,83.2,55.8,82.9,45.1z"/>
</g>
</svg>
