<?xml version="1.0" encoding="UTF-8"?>
<svg xmlns="http://www.w3.org/2000/svg" xmlns:xlink="http://www.w3.org/1999/xlink" viewBox="0 0 169 180">
  <defs>
    <style>
      .cls-1 {
        stroke-width: 2px;
      }

      .cls-1, .cls-2 {
        stroke: #f4f3ee;
        stroke-miterlimit: 10;
      }

      .cls-1, .cls-3 {
        fill: none;
      }

      .cls-2 {
        fill: #463f3a;
      }

      .cls-4 {
        clip-path: url(#clippath);
      }
    </style>
    <clipPath id="clippath">
      <rect class="cls-3" x="2.95" y="-157.44" width="522" height="133.06"/>
    </clipPath>
  </defs>
  <g id="Person">
    <g id="Shield">
      <path class="cls-1" d="M84.5,24.9s-28,.6-42,18.6v43.34s2,36.5,42,66.58c40-30.08,42-66.58,42-66.58V43.5c-14-18-42-18.6-42-18.6Z"/>
      <path class="cls-1" d="M84.76,29.45s-25.17,.54-37.76,16.72v41.97s1.8,32.82,37.76,59.86c35.96-27.05,37.76-59.86,37.76-59.86V46.17c-12.59-16.18-37.76-16.72-37.76-16.72Z"/>
      <line class="cls-1" x1="84.76" y1="29.45" x2="84.76" y2="148"/>
      <line class="cls-1" x1="47" y1="46.17" x2="122.52" y2="46.17"/>
      <path class="cls-1" d="M84.76,46.17s.74,18.47-37.76,18.47v-7.48s38.02-.32,37.76-10.99Z"/>
    </g>
  </g>
  <g id="Achivement">
    <g class="cls-4">
      <g>
        <path class="cls-2" d="M397.09-1.04c-21.65,9.15-44.18,15.75-67.36,19.78-11.02,1.92-22.2,3.18-33.36,3.91-11.21,.73-22.51,.9-33.74,.46-16.63-.65-33.13-2.95-49.42-6.42-28.93-6.16-57.08-14.85-84.59-25.76-31.74-12.58-56.63-33.6-76.91-60.71-10.37-13.87-20.87-27.72-32.26-40.75-5.07-5.8-10.53-11.1-16.41-15.81v21.14c9.14,8.57,17.4,18,25.55,27.54,12.63,14.78,25.33,29.47,40.01,42.33C86.81-19.38,107.74-8.25,130.35-.15c27.83,9.96,56.33,17.61,85.4,22.95,14.77,2.72,29.66,4.79,44.71,5.03,12.33,.2,24.71,.61,36.99-.19,33.75-2.18,66.4-9.86,97.9-22.02,23.17-8.94,45.97-18.84,68.98-28.21,13.05-5.32,26.29-10.17,40.27-12.43,6.6-1.07,13.28-1.83,19.95-2.33v-11.98c-21.56,2.6-42.09,9.63-62.14,19.05-21.59,10.15-43.36,19.95-65.33,29.24Z"/>
        <path class="cls-2" d="M379.71,15.35c-18.82,5.82-37.93,10.41-57.42,13.26-19.41,2.84-38.96,4.06-58.56,3.27-20.72-.84-41.26-3.34-61.61-7.44-26.04-5.24-51.78-11.62-76.9-20.34-29.63-10.28-55.38-26.84-77.47-49-13.27-13.31-26.05-27.11-39.16-40.58-1.82-1.87-3.67-3.71-5.54-5.52v16.78c11.13,10.29,22.08,20.77,33.14,31.14C57.08-23.47,79.71-6.4,106.16,5.15c17.22,7.52,35.23,12.54,53.49,16.59,16.82,3.73,33.71,7.28,50.69,10.21,11.47,1.98,23.12,3.21,34.75,3.95,13.39,.86,26.84,1.32,40.25,1.02,11.65-.26,23.31-1.47,34.89-2.9,42.26-5.21,82.09-19.31,121.82-33.73,14.42-5.23,28.91-10.39,44.08-12.95,8.9-1.5,17.93-2.55,26.94-3.01,3.82-.19,7.65-.31,11.48-.4v-12.35c-25.59,1.46-50.41,7.27-74.57,17.53-23.01,9.77-46.35,18.83-70.28,26.23Z"/>
        <path class="cls-2" d="M439.32,7.14c-23.86,7.43-47.67,15.09-71.77,21.62-14.49,3.93-29.47,6.21-44.32,8.67-18.64,3.09-37.49,4.11-56.35,3.67-13.03-.31-26.07-1.3-39.05-2.58-31.97-3.15-63.37-9.63-94.46-17.57C104.2,13.5,78.23-.53,54.92-19.27,38.38-32.56,22.67-46.89,6.63-60.81c-1.19-1.03-2.38-2.06-3.57-3.09v12.9c4.17,3.32,8.28,6.7,12.39,10.1C36.05-23.82,56.7-6.84,79.67,7.1c20.04,12.16,41.66,20.03,64.56,24.48,16.84,3.28,33.71,6.42,50.64,9.13,11.24,1.8,22.58,3.12,33.93,3.95,15,1.09,30.06,2.18,45.08,2.01,15.01-.17,30.04-1.47,44.98-3.02,35.44-3.68,69.57-13.35,103.66-23.21,14.88-4.3,29.91-8.23,45.07-11.38,9.34-1.94,19.03-2.61,28.59-2.93,9.45-.31,18.91-.44,28.37-.53V-6.43c-8.82,.06-17.64,.2-26.45,.57-20.29,.86-39.54,7-58.78,13Z"/>
        <path class="cls-2" d="M428.38-26.13c-24.85,13.01-50.42,24.31-77.56,31.73-13.42,3.67-27.02,6.35-40.85,8.02-15.63,1.89-31.29,2.41-46.96,1.36-33.43-2.23-65.5-10.45-96.64-22.59-16.21-6.32-32.15-13.19-46.83-22.66-17.05-11-29.78-25.88-38.87-43.9-4.98-9.87-9.34-20.07-14.51-29.84-13.55-25.64-32.52-44.28-56.3-56.5H3.06v17.9c3.73,2.44,7.39,5.1,10.98,8,15.1,12.2,26.8,27.22,37.26,43.41,7.33,11.34,14.7,22.7,22.78,33.51,14.57,19.49,33.91,33.09,56.01,42.84,30.16,13.3,61.33,23.5,93.76,29.66,13.97,2.65,28.02,4.64,42.25,4.87,10.33,.17,20.71,.49,31-.18,26.25-1.71,51.76-7.32,76.65-15.83,26.5-9.05,51.56-21.33,76.52-33.86,16.4-8.24,32.76-16.57,50.27-22.31,7.89-2.58,15.89-4.43,24.03-5.58v-11.51c-13.72,2.57-26.83,7.37-39.44,13.72-19.07,9.59-37.82,19.83-56.74,29.74Z"/>
        <path class="cls-2" d="M423.07-46c-23.26,15.16-47.95,27.54-74.57,35.77-14.52,4.49-29.31,7.57-44.46,9.09-12.5,1.25-25.01,1.5-37.48,.37-28.28-2.55-55.26-9.74-80.1-23.89-6.56-3.74-12.69-8.07-17.67-13.87-5.15-6.01-6.77-12.68-4.09-20.25,.33-.94,.59-1.92,.99-2.82,3.97-8.89,3.1-17.6-2.19-25.45-7.14-10.59-14.58-21.03-22.55-31-11.44-14.31-23.1-28.44-34.9-42.46h-19.05c14.8,16.37,28.58,33.57,40.82,52.01,2,3.02,3.74,6.22,5.48,9.4,4.73,8.65,6.5,17.91,4.99,27.64-2.38,15.41,4.29,26.77,15.81,35.94,15.49,12.33,33.3,20.29,51.81,26.81C222.13-2.99,238.8,.81,255.9,2.88c12.47,1.51,24.97,2.01,37.47,1.36,34.31-1.77,66.59-11.31,97.44-26.11,22.83-10.96,44.16-24.47,65.3-38.32,16.29-10.67,32.46-21.54,50.08-29.99,5.99-2.87,12.11-5.31,18.37-7.28v-11.1c-15.41,5.55-29.61,13.95-43.42,23.23-19.4,13.04-38.49,26.56-58.07,39.33Z"/>
        <path class="cls-2" d="M421.03-33.55C395.68-18.88,369.11-6.85,340.52,0c-11.89,2.85-24.05,5-36.21,6.25-11.78,1.21-23.76,1.62-35.58,1.04-29.85-1.46-58.5-8.62-86.03-20.22-14.63-6.16-28.79-13.18-41.57-22.77-14.29-10.73-22.83-24.66-23.82-42.72-.79-14.44-5.53-27.5-13.39-39.49-10.08-15.36-21.23-29.81-34.19-42.6h-30.47c1.46,1.03,2.91,2.08,4.35,3.18,23.51,17.79,39.3,41.19,47.38,69.69,3.3,11.65,7.71,22.84,14.77,32.84,8.5,12.05,19.69,21.01,32.41,28.13C165.38-11.43,194.34-.77,224.76,6.08c22.68,5.1,45.64,6.97,68.79,5.82,27.88-1.4,54.79-7.71,80.89-17.56,25.9-9.77,50.15-22.87,74.07-36.64,17.02-9.79,33.86-19.94,51.95-27.72,7.86-3.38,15.88-6.06,24.09-7.95v-11.08c-16.3,4.3-31.12,12.1-45.53,20.68-19.37,11.54-38.48,23.54-57.99,34.83Z"/>
        <path class="cls-2" d="M449.31,58.81c-11.96,.08-23.96,.61-35.86,1.71-14.03,1.29-27.97,3.46-41.96,5.18-11.12,1.37-22.24,2.77-33.39,3.9-13.69,1.39-27.38,2.84-41.11,3.68-21.66,1.33-43.34,1.82-65.04,.83-9.33-.43-18.68-.68-28-1.28-10.76-.69-21.51-1.6-32.25-2.55-9.38-.83-18.74-1.97-28.12-2.79-25.02-2.18-48.44-9.44-70.07-22.16-16.25-9.56-32.26-19.54-48.39-29.3C17.88,11.66,10.55,7.51,3.06,3.73V74.9H524.56v-16.2c-25.08-.03-50.16-.06-75.24,.11Z"/>
        <path class="cls-2" d="M420.66,42.2c-20.1,3.34-40.07,7.53-60.15,11.03-12.1,2.11-24.28,3.87-36.48,5.33-9.61,1.15-19.3,1.93-28.98,2.31-15.59,.6-31.21,1.18-46.81,.93-13.95-.23-27.89-1.38-41.8-2.51-12.54-1.01-25.06-2.35-37.54-3.89-18.66-2.3-37.35-4.51-55.43-10.04-19.44-5.95-36.8-16.03-53.55-27.24C42.36,6.36,25.08-5.81,7.41-17.41c-1.44-.95-2.9-1.87-4.36-2.79V-6.77c.08,.05,.17,.09,.25,.14C20.67,3.53,37.49,14.62,54.48,25.42c15.77,10.03,31.7,19.73,49.32,26.25,12.53,4.64,25.56,7.22,38.78,8.85,12.04,1.48,24.08,2.99,36.14,4.21,9.91,1,19.86,1.79,29.81,2.31,14.95,.78,29.91,1.62,44.87,1.73,14.51,.1,29.03-.51,43.53-1.15,9.86-.43,19.71-1.23,29.53-2.27,10.69-1.14,21.35-2.64,31.99-4.17,13.49-1.94,26.94-4.13,40.43-6.11,10.28-1.51,20.56-3,30.88-4.2,6.21-.72,12.48-1.14,18.73-1.19,25.35-.22,50.71-.34,76.06-.47v-12.2c-21.9,.05-43.81,.07-65.7,.67-12.77,.35-25.56,2.43-38.2,4.53Z"/>
        <path class="cls-2" d="M410.11,29.54c-21.72,5.35-43.54,10.32-65.46,14.77-11.39,2.31-23.08,3.26-34.65,4.6-17.42,2.01-34.93,2.62-52.44,2.05-12.94-.42-25.89-1.34-38.78-2.58-13.4-1.3-26.79-2.93-40.1-4.99-23.92-3.71-47.95-7.01-70.77-15.69-19.56-7.44-37.11-18.5-53.84-30.84C36.92-15.79,20.12-28.91,3.06-41.67v12.23C20.43-17.41,37.53-4.98,54.83,7.16c16.72,11.73,33.98,22.53,53.3,29.6,12.79,4.68,26.03,7.49,39.44,9.57,12.15,1.89,24.31,3.71,36.5,5.3,9.24,1.2,18.54,1.99,27.81,2.94,20.23,2.08,40.53,3.17,60.86,2.59,14.21-.41,28.43-1.39,42.6-2.62,31.75-2.75,62.76-9.75,93.81-16.61,14.43-3.19,28.93-6.61,43.58-8.19,16.82-1.82,33.85-1.97,50.8-2.37,7.01-.17,14.02-.21,21.03-.21V15.34c-12.18,.06-24.37,.12-36.55,.19-26.78,.15-52.21,7.69-77.9,14.01Z"/>
        <path class="cls-2" d="M429.77,50.86c-10.32,1.19-20.6,2.69-30.88,4.2-13.49,1.98-26.94,4.17-40.43,6.11-10.64,1.53-21.3,3.03-31.99,4.17-9.81,1.04-19.67,1.84-29.53,2.27-14.5,.64-29.03,1.26-43.53,1.15-14.96-.11-29.92-.95-44.87-1.73-9.95-.52-19.9-1.31-29.81-2.31-12.07-1.22-24.1-2.73-36.14-4.21-13.22-1.63-26.25-4.21-38.78-8.85-17.62-6.52-33.55-16.22-49.32-26.25C37.49,14.62,20.67,3.53,3.31-6.62c-.08-.05-.17-.09-.25-.14V3.73c7.5,3.78,14.83,7.93,22.06,12.3,16.14,9.76,32.14,19.74,48.39,29.3,21.63,12.72,45.05,19.99,70.07,22.16,9.38,.82,18.74,1.96,28.12,2.79,10.74,.95,21.49,1.86,32.25,2.55,9.32,.6,18.67,.85,28,1.28,21.7,1,43.39,.51,65.04-.83,13.73-.85,27.42-2.29,41.11-3.68,11.15-1.13,22.26-2.54,33.39-3.9,13.99-1.72,27.94-3.89,41.96-5.18,11.91-1.1,23.9-1.63,35.86-1.71,25.08-.17,50.16-.14,75.24-.11v-9.5c-25.35,.13-50.71,.25-76.06,.47-6.25,.05-12.52,.47-18.73,1.19Z"/>
        <path class="cls-2" d="M452.73,29.73c-14.65,1.58-29.14,5-43.58,8.19-31.04,6.86-62.06,13.86-93.81,16.61-14.17,1.23-28.38,2.21-42.6,2.62-20.33,.58-40.62-.51-60.86-2.59-9.27-.95-18.57-1.74-27.81-2.94-12.19-1.58-24.35-3.41-36.5-5.3-13.41-2.08-26.66-4.9-39.44-9.57-19.32-7.07-36.58-17.87-53.3-29.6C37.53-4.98,20.43-17.41,3.06-29.44v9.24c1.46,.91,2.92,1.84,4.36,2.79C25.08-5.81,42.36,6.36,59.92,18.11c16.75,11.21,34.11,21.29,53.55,27.24,18.08,5.53,36.77,7.74,55.43,10.04,12.49,1.54,25,2.88,37.54,3.89,13.91,1.13,27.86,2.28,41.8,2.51,15.6,.25,31.22-.33,46.81-.93,9.68-.37,19.36-1.16,28.98-2.31,12.2-1.46,24.38-3.21,36.48-5.33,20.08-3.51,40.04-7.69,60.15-11.03,12.64-2.1,25.43-4.18,38.2-4.53,21.89-.6,43.79-.63,65.7-.67v-9.85c-7.01,0-14.02,.04-21.03,.21-16.95,.4-33.98,.55-50.8,2.37Z"/>
        <path class="cls-2" d="M467.6,9.07c-15.16,3.15-30.19,7.08-45.07,11.38-34.09,9.85-68.22,19.53-103.66,23.21-14.94,1.55-29.97,2.85-44.98,3.02-15.02,.17-30.08-.91-45.08-2.01-11.35-.83-22.7-2.15-33.93-3.95-16.94-2.71-33.81-5.85-50.64-9.13-22.9-4.46-44.52-12.33-64.56-24.48C56.7-6.84,36.05-23.82,15.44-40.89c-4.1-3.4-8.22-6.79-12.39-10.1v9.33C20.12-28.91,36.92-15.79,54.07-3.15c16.73,12.34,34.28,23.39,53.84,30.84,22.82,8.68,46.86,11.99,70.77,15.69,13.31,2.06,26.69,3.69,40.1,4.99,12.89,1.25,25.84,2.16,38.78,2.58,17.51,.57,35.02-.04,52.44-2.05,11.58-1.33,23.26-2.28,34.65-4.6,21.92-4.45,43.74-9.43,65.46-14.77,25.69-6.32,51.12-13.86,77.9-14.01,12.18-.07,24.37-.13,36.55-.19V5.61c-9.46,.08-18.92,.22-28.37,.53-9.56,.31-19.25,.99-28.59,2.93Z"/>
        <path class="cls-2" d="M486.13-12.65c-15.17,2.57-29.66,7.72-44.08,12.95-39.73,14.42-79.56,28.51-121.82,33.73-11.58,1.43-23.24,2.64-34.89,2.9-13.41,.3-26.86-.16-40.25-1.02-11.62-.75-23.28-1.97-34.75-3.95-16.98-2.93-33.86-6.48-50.69-10.21-18.27-4.05-36.28-9.07-53.49-16.59C79.71-6.4,57.08-23.47,36.19-43.08c-11.05-10.37-22.01-20.85-33.14-31.14v10.32c1.19,1.03,2.38,2.05,3.57,3.09,16.04,13.92,31.75,28.25,48.3,41.55C78.23-.53,104.2,13.5,133.37,20.96c31.09,7.94,62.48,14.42,94.46,17.57,12.98,1.28,26.02,2.27,39.05,2.58,18.86,.44,37.72-.58,56.35-3.67,14.85-2.46,29.82-4.74,44.32-8.67,24.11-6.53,47.92-14.19,71.77-21.62,19.25-6,38.49-12.14,58.78-13,8.81-.37,17.63-.5,26.45-.57v-9.63c-3.83,.09-7.66,.21-11.48,.4-9.01,.46-18.04,1.51-26.94,3.01Z"/>
        <path class="cls-2" d="M464.34-22.58c-23.01,9.37-45.81,19.27-68.98,28.21-31.5,12.15-64.15,19.83-97.9,22.02-12.28,.79-24.66,.39-36.99,.19-15.05-.24-29.94-2.32-44.71-5.03-29.07-5.35-57.57-12.99-85.4-22.95-22.61-8.1-43.54-19.23-61.74-35.18-14.67-12.86-27.38-27.55-40.01-42.33-8.15-9.54-16.41-18.97-25.55-27.54v14.21c1.87,1.81,3.72,3.65,5.54,5.52,13.12,13.47,25.9,27.26,39.16,40.58C69.84-22.74,95.59-6.18,125.22,4.1c25.11,8.71,50.85,15.09,76.9,20.34,20.35,4.1,40.89,6.6,61.61,7.44,19.61,.79,39.15-.43,58.56-3.27,19.49-2.85,38.6-7.43,57.42-13.26,23.93-7.41,47.27-16.46,70.28-26.23,24.16-10.26,48.98-16.08,74.57-17.53v-8.93c-6.68,.5-13.35,1.27-19.95,2.33-13.98,2.26-27.22,7.11-40.27,12.43Z"/>
        <path class="cls-2" d="M456.11-60.19c-21.14,13.84-42.47,27.36-65.3,38.32-30.84,14.8-63.13,24.34-97.44,26.11-12.5,.64-25,.15-37.47-1.36-17.1-2.07-33.77-5.87-49.99-11.58-18.51-6.52-36.32-14.48-51.81-26.81-11.52-9.17-18.2-20.53-15.81-35.94,1.5-9.73-.26-18.99-4.99-27.64-1.74-3.18-3.48-6.38-5.48-9.4-12.23-18.44-26.01-35.64-40.82-52.01h-17.27c12.96,12.79,24.11,27.24,34.19,42.6,7.86,11.99,12.6,25.04,13.39,39.49,.99,18.07,9.53,31.99,23.82,42.72,12.77,9.59,26.94,16.61,41.57,22.77C210.23-1.34,238.88,5.83,268.73,7.29c11.82,.58,23.8,.17,35.58-1.04C316.47,5,328.62,2.85,340.52,0c28.59-6.85,55.16-18.88,80.51-33.55,19.52-11.29,38.62-23.29,57.99-34.83,14.41-8.58,29.23-16.39,45.53-20.68v-8.39c-6.26,1.97-12.38,4.41-18.37,7.28-17.62,8.44-33.79,19.32-50.08,29.99Z"/>
        <path class="cls-2" d="M440.92-62.96c-22.51,16.09-45.88,30.71-71.45,41.56-22.35,9.49-45.55,15.81-69.8,17.43-10.81,.72-21.74,.17-32.59-.38-13.95-.72-27.51-3.8-40.77-8.15-12.78-4.2-25.09-9.38-35.62-18.04-1.26-1.03-2.45-2.17-3.55-3.38-5.89-6.54-6.72-12.05-1.65-20.58,5.52-9.3,5.03-18-1.03-26.47-4.96-6.93-10.22-13.65-15.67-20.2-16.5-19.83-33.15-39.54-49.7-59.33h-13.05c11.79,14.02,23.46,28.15,34.9,42.46,7.97,9.97,15.41,20.41,22.55,31,5.29,7.84,6.16,16.55,2.19,25.45-.41,.91-.66,1.88-.99,2.82-2.68,7.57-1.06,14.24,4.09,20.25,4.98,5.8,11.11,10.14,17.67,13.87C211.3-10.51,238.27-3.32,266.56-.77c12.47,1.12,24.98,.88,37.48-.37,15.15-1.51,29.95-4.6,44.46-9.09,26.62-8.23,51.31-20.62,74.57-35.77,19.58-12.76,38.67-26.29,58.07-39.33,13.8-9.28,28-17.68,43.42-23.23v-8.39c-11.34,4.36-21.96,10.27-32.04,17.2-17.4,11.97-34.42,24.49-51.6,36.78Z"/>
        <path class="cls-2" d="M448.52-42.31c-23.92,13.77-48.17,26.87-74.07,36.64-26.1,9.85-53.01,16.16-80.89,17.56-23.15,1.16-46.11-.72-68.79-5.82-30.42-6.84-59.38-17.51-86.59-32.75-12.72-7.12-23.91-16.09-32.41-28.13-7.05-10-11.47-21.19-14.77-32.84-8.08-28.51-23.87-51.91-47.38-69.69-1.44-1.09-2.89-2.14-4.35-3.18H9.86c23.78,12.23,42.75,30.86,56.3,56.5,5.16,9.77,9.52,19.97,14.51,29.84,9.1,18.02,21.82,32.9,38.87,43.9,14.68,9.47,30.61,16.34,46.83,22.66,31.14,12.14,63.21,20.36,96.64,22.59,15.67,1.05,31.33,.52,46.96-1.36,13.83-1.67,27.43-4.35,40.85-8.02,27.14-7.43,52.7-18.72,77.56-31.73,18.92-9.91,37.67-20.14,56.74-29.74,12.61-6.34,25.72-11.14,39.44-13.72v-8.4c-8.21,1.9-16.23,4.57-24.09,7.95-18.09,7.79-34.93,17.93-51.95,27.72Z"/>
        <path class="cls-2" d="M450.26-30.19c-24.96,12.54-50.02,24.81-76.52,33.86-24.89,8.5-50.4,14.11-76.65,15.83-10.29,.67-20.67,.35-31,.18-14.23-.23-28.28-2.21-42.25-4.87-32.43-6.16-63.6-16.36-93.76-29.66-22.1-9.75-41.44-23.34-56.01-42.84-8.08-10.81-15.45-22.17-22.78-33.51-10.46-16.18-22.16-31.2-37.26-43.41-3.59-2.9-7.25-5.57-10.98-8v16.27c5.88,4.71,11.34,10.01,16.41,15.81,11.39,13.03,21.88,26.88,32.26,40.75,20.28,27.11,45.17,48.13,76.91,60.71,27.51,10.9,55.66,19.6,84.59,25.76,16.29,3.47,32.78,5.76,49.42,6.42,11.23,.44,22.52,.27,33.74-.46,11.16-.73,22.34-1.99,33.36-3.91,23.17-4.03,45.71-10.63,67.36-19.78,21.97-9.29,43.74-19.09,65.33-29.24,20.04-9.42,40.57-16.45,62.14-19.05v-8.76c-8.13,1.14-16.14,2.99-24.03,5.58-17.51,5.74-33.87,14.07-50.27,22.31Z"/>
      </g>
    </g>
  </g>
</svg>